<?xml version="1.0" standalone="no"?>
<!DOCTYPE svg PUBLIC "-//W3C//DTD SVG 20010904//EN"
 "http://www.w3.org/TR/2001/REC-SVG-20010904/DTD/svg10.dtd">
<svg version="1.0" xmlns="http://www.w3.org/2000/svg"
 width="173.000000pt" height="156.000000pt" viewBox="0 0 173.000000 156.000000"
 preserveAspectRatio="xMidYMid meet">

<g transform="translate(0.000000,156.000000) scale(0.100000,-0.100000)"
fill="#000000" stroke="none">
<path d="M325 1546 c-96 -31 -163 -88 -204 -176 l-26 -55 0 -535 0 -535 26
-56 c33 -71 87 -124 158 -158 l56 -26 535 0 535 0 56 26 c71 33 125 87 158
158 l26 56 0 535 0 535 -26 55 c-33 70 -89 126 -159 159 l-55 26 -520 2 c-400
2 -529 -1 -560 -11z m458 -480 c56 -27 77 -63 77 -131 0 -52 -3 -60 -35 -92
-20 -20 -34 -36 -33 -37 78 -47 98 -80 98 -162 0 -51 -5 -67 -28 -100 -46 -63
-92 -74 -309 -74 l-183 0 0 303 c0 167 3 307 8 311 4 5 88 6 187 4 149 -3 187
-7 218 -22z m576 -20 c6 -7 9 -21 5 -30 -5 -14 -26 -16 -150 -16 -151 0 -166
5 -150 45 8 21 278 22 295 1z m-31 -135 c53 -28 89 -98 99 -191 l6 -60 -156 0
c-98 0 -158 -4 -162 -11 -11 -17 38 -78 68 -85 43 -9 94 4 115 30 14 18 30 25
70 27 56 4 59 2 38 -39 -66 -126 -248 -150 -352 -46 -25 24 -47 58 -53 80 -28
100 1 220 63 268 67 50 196 64 264 27z"/>
<path d="M530 920 l0 -82 69 4 c85 4 111 23 111 79 0 51 -31 72 -116 77 l-64
4 0 -82z"/>
<path d="M530 656 l0 -96 65 0 c102 0 145 30 145 103 0 58 -36 81 -131 86
l-79 3 0 -96z"/>
<path d="M1146 818 c-13 -13 -27 -33 -31 -45 -6 -23 -5 -23 95 -23 100 0 101
0 95 23 -11 38 -52 67 -95 67 -26 0 -47 -7 -64 -22z"/>
</g>
</svg>
